# Created by FreeCAD <http://www.freecadweb.org>
v -0.600583 -4.946249 0.000000
v 0.600583 -4.946249 0.000000
v -0.600583 -4.946249 100.000000
v 0.600583 -4.946249 100.000000
v 1.766846 -4.658791 0.000000
v 1.766846 -4.658791 100.000000
v 4.982577 0.000000 0.000000
v 4.837792 1.192409 0.000000
v 4.982577 0.000000 100.000000
v 4.837792 1.192409 100.000000
v 2.830426 -4.100581 0.000000
v 2.830426 -4.100581 100.000000
v 4.411853 2.315519 0.000000
v 4.411853 2.315519 100.000000
v 3.729512 -3.304060 0.000000
v 3.729512 -3.304060 100.000000
v 3.729512 3.304060 0.000000
v 3.729512 3.304060 100.000000
v 4.411853 -2.315519 0.000000
v 4.411853 -2.315519 100.000000
v 2.830426 4.100581 0.000000
v 2.830426 4.100581 100.000000
v 4.837792 -1.192409 0.000000
v 4.837792 -1.192409 100.000000
v 1.766846 4.658791 0.000000
v 1.766846 4.658791 100.000000
v 0.600583 4.946249 0.000000
v 0.600583 4.946249 100.000000
v -0.600583 4.946249 0.000000
v -0.600583 4.946249 100.000000
v -1.766846 4.658791 0.000000
v -1.766846 4.658791 100.000000
v -2.830426 4.100581 0.000000
v -2.830426 4.100581 100.000000
v -3.729512 3.304060 0.000000
v -3.729512 3.304060 100.000000
v -4.411853 2.315519 100.000000
v -4.411853 2.315519 0.000000
v -4.837792 1.192409 0.000000
v -4.837792 1.192409 100.000000
v -4.982577 0.000000 0.000000
v -4.982577 0.000000 100.000000
v -4.837792 -1.192409 100.000000
v -4.837792 -1.192409 0.000000
v -4.411853 -2.315519 0.000000
v -4.411853 -2.315519 100.000000
v -3.729512 -3.304060 0.000000
v -3.729512 -3.304060 100.000000
v -2.830426 -4.100581 100.000000
v -2.830426 -4.100581 0.000000
v -1.766846 -4.658791 0.000000
v -1.766846 -4.658791 100.000000
vn 0.000000 -1.000000 0.000000
vn 0.000000 -1.000000 0.000000
vn 0.239316 -0.970942 0.000000
vn 0.239316 -0.970942 0.000000
vn 0.992709 0.120537 -0.000000
vn 0.992709 0.120537 0.000000
vn 0.464723 -0.885456 0.000000
vn 0.464723 -0.885456 0.000000
vn 0.935016 0.354605 0.000000
vn 0.935016 0.354605 -0.000000
vn 0.663123 -0.748511 0.000000
vn 0.663123 -0.748511 0.000000
vn 0.822984 0.568065 0.000000
vn 0.822984 0.568065 -0.000000
vn 0.822984 -0.568065 0.000000
vn 0.822984 -0.568065 0.000000
vn 0.663123 0.748511 0.000000
vn 0.663123 0.748511 -0.000000
vn 0.935016 -0.354605 0.000000
vn 0.935016 -0.354605 0.000000
vn 0.992709 -0.120537 0.000000
vn 0.464723 0.885456 0.000000
vn 0.992709 -0.120537 0.000000
vn 0.464723 0.885456 -0.000000
vn 0.239316 0.970942 0.000000
vn 0.239316 0.970942 -0.000000
vn 0.000000 1.000000 0.000000
vn 0.000000 1.000000 -0.000000
vn -0.239316 0.970942 0.000000
vn -0.239316 0.970942 0.000000
vn -0.464723 0.885456 0.000000
vn -0.464723 0.885456 0.000000
vn -0.663123 0.748511 0.000000
vn -0.822984 0.568065 0.000000
vn -0.663123 0.748511 0.000000
vn -0.822984 0.568065 0.000000
vn -0.935016 0.354605 0.000000
vn -0.935016 0.354605 0.000000
vn -0.992709 0.120537 0.000000
vn -0.992709 0.120537 0.000000
vn -0.992709 -0.120537 -0.000000
vn -0.992709 -0.120537 0.000000
vn -0.935016 -0.354605 0.000000
vn -0.935016 -0.354605 0.000000
vn -0.822984 -0.568065 0.000000
vn -0.822984 -0.568065 0.000000
vn -0.663123 -0.748511 -0.000000
vn -0.663123 -0.748511 0.000000
vn -0.464723 -0.885456 0.000000
vn -0.464723 -0.885456 0.000000
vn -0.239316 -0.970942 0.000000
vn -0.239316 -0.970942 0.000000
vn 0.000000 0.000000 -1.000000
vn 0.000000 0.000000 -1.000000
vn 0.000000 0.000000 -1.000000
vn 0.000000 -0.000000 -1.000000
vn 0.000000 0.000000 -1.000000
vn 0.000000 0.000000 -1.000000
vn 0.000000 -0.000000 -1.000000
vn 0.000000 -0.000000 -1.000000
vn 0.000000 -0.000000 -1.000000
vn 0.000000 0.000000 -1.000000
vn 0.000000 0.000000 -1.000000
vn 0.000000 0.000000 -1.000000
vn 0.000000 -0.000000 -1.000000
vn 0.000000 0.000000 -1.000000
vn 0.000000 0.000000 -1.000000
vn 0.000000 0.000000 -1.000000
vn -0.000000 -0.000000 -1.000000
vn -0.000000 -0.000000 -1.000000
vn -0.000000 -0.000000 -1.000000
vn 0.000000 0.000000 -1.000000
vn 0.000000 0.000000 -1.000000
vn 0.000000 -0.000000 -1.000000
vn 0.000000 0.000000 -1.000000
vn 0.000000 0.000000 -1.000000
vn 0.000000 0.000000 1.000000
vn 0.000000 0.000000 1.000000
vn 0.000000 0.000000 1.000000
vn 0.000000 0.000000 1.000000
vn 0.000000 0.000000 1.000000
vn 0.000000 0.000000 1.000000
vn 0.000000 0.000000 1.000000
vn 0.000000 0.000000 1.000000
vn 0.000000 0.000000 1.000000
vn 0.000000 0.000000 1.000000
vn 0.000000 0.000000 1.000000
vn 0.000000 0.000000 1.000000
vn 0.000000 0.000000 1.000000
vn 0.000000 0.000000 1.000000
vn 0.000000 0.000000 1.000000
vn 0.000000 0.000000 1.000000
vn 0.000000 0.000000 1.000000
vn 0.000000 0.000000 1.000000
vn 0.000000 0.000000 1.000000
vn 0.000000 0.000000 1.000000
vn 0.000000 0.000000 1.000000
vn 0.000000 0.000000 1.000000
vn 0.000000 0.000000 1.000000
vn 0.000000 0.000000 1.000000
f 1//1 2//1 3//1
f 3//2 2//2 4//2
f 2//3 5//3 4//3
f 4//4 5//4 6//4
f 7//5 8//5 9//5
f 9//6 8//6 10//6
f 5//7 11//7 6//7
f 6//8 11//8 12//8
f 10//9 13//9 14//9
f 8//10 13//10 10//10
f 12//11 15//11 16//11
f 11//12 15//12 12//12
f 14//13 17//13 18//13
f 13//14 17//14 14//14
f 15//15 19//15 16//15
f 16//16 19//16 20//16
f 18//17 21//17 22//17
f 17//18 21//18 18//18
f 20//19 23//19 24//19
f 19//20 23//20 20//20
f 24//21 23//21 9//21
f 22//22 25//22 26//22
f 23//23 7//23 9//23
f 21//24 25//24 22//24
f 26//25 27//25 28//25
f 25//26 27//26 26//26
f 28//27 29//27 30//27
f 27//28 29//28 28//28
f 30//29 31//29 32//29
f 29//30 31//30 30//30
f 32//31 33//31 34//31
f 31//32 33//32 32//32
f 34//33 35//33 36//33
f 36//34 35//34 37//34
f 33//35 35//35 34//35
f 35//36 38//36 37//36
f 38//37 39//37 37//37
f 37//38 39//38 40//38
f 39//39 41//39 40//39
f 40//40 41//40 42//40
f 42//41 41//41 43//41
f 41//42 44//42 43//42
f 44//43 45//43 43//43
f 43//44 45//44 46//44
f 45//45 47//45 46//45
f 46//46 47//46 48//46
f 48//47 47//47 49//47
f 47//48 50//48 49//48
f 50//49 51//49 49//49
f 49//50 51//50 52//50
f 51//51 1//51 52//51
f 52//52 1//52 3//52
f 47//53 51//53 50//53
f 44//54 41//54 45//54
f 51//55 2//55 1//55
f 39//56 38//56 41//56
f 2//57 11//57 5//57
f 51//58 11//58 2//58
f 33//59 31//59 35//59
f 35//60 31//60 38//60
f 38//61 31//61 41//61
f 15//62 23//62 19//62
f 45//63 29//63 47//63
f 41//64 29//64 45//64
f 31//65 29//65 41//65
f 23//66 8//66 7//66
f 15//67 8//67 23//67
f 8//68 17//68 13//68
f 21//69 17//69 25//69
f 25//70 17//70 27//70
f 27//71 17//71 29//71
f 11//72 17//72 15//72
f 47//73 17//73 51//73
f 29//74 17//74 47//74
f 51//75 17//75 11//75
f 15//76 17//76 8//76
f 52//77 48//77 49//77
f 42//78 43//78 46//78
f 4//79 52//79 3//79
f 37//80 40//80 42//80
f 12//81 4//81 6//81
f 12//82 52//82 4//82
f 32//83 34//83 36//83
f 32//84 36//84 37//84
f 32//85 37//85 42//85
f 24//86 16//86 20//86
f 30//87 46//87 48//87
f 30//88 42//88 46//88
f 30//89 32//89 42//89
f 10//90 24//90 9//90
f 10//91 16//91 24//91
f 18//92 10//92 14//92
f 18//93 22//93 26//93
f 18//94 26//94 28//94
f 18//95 28//95 30//95
f 18//96 12//96 16//96
f 18//97 48//97 52//97
f 18//98 30//98 48//98
f 18//99 52//99 12//99
f 18//100 16//100 10//100
